<svg id="visual" viewBox="0 0 960 540" width="960" height="540" xmlns="http://www.w3.org/2000/svg" xmlns:xlink="http://www.w3.org/1999/xlink" version="1.1"><rect x="0" y="0" width="960" height="540" fill="#000000"></rect><defs><linearGradient id="grad1_0" x1="43.8%" y1="0%" x2="100%" y2="100%"><stop offset="14.444444444444446%" stop-color="#000000" stop-opacity="1"></stop><stop offset="85.55555555555554%" stop-color="#000000" stop-opacity="1"></stop></linearGradient></defs><defs><linearGradient id="grad2_0" x1="0%" y1="0%" x2="56.3%" y2="100%"><stop offset="14.444444444444446%" stop-color="#000000" stop-opacity="1"></stop><stop offset="85.55555555555554%" stop-color="#000000" stop-opacity="1"></stop></linearGradient></defs><g transform="translate(960, 0)"><path d="M0 351C-68.6 346 -137.2 341 -175.5 304C-213.8 267 -221.8 198 -246 142C-270.1 86 -310.6 43 -351 0L0 0Z" fill="#715DF2"></path></g><g transform="translate(0, 540)"><path d="M0 -351C36.6 -299.5 73.2 -248 130 -225.2C186.8 -202.4 263.8 -208.2 304 -175.5C344.2 -142.8 347.6 -71.4 351 0L0 0Z" fill="#715DF2"></path></g></svg>